<svg width="512" height="512" viewBox="0 0 512 512" fill="none" xmlns="http://www.w3.org/2000/svg">
  <defs>
    <linearGradient id="bgMain" x1="58" y1="40" x2="456" y2="458" gradientUnits="userSpaceOnUse">
      <stop stop-color="#B32955"/>
      <stop offset="0.52" stop-color="#253A8F"/>
      <stop offset="1" stop-color="#1FA56D"/>
    </linearGradient>
    <linearGradient id="cube" x1="334" y1="112" x2="466" y2="290" gradientUnits="userSpaceOnUse">
      <stop stop-color="#F7D95B"/>
      <stop offset="0.5" stop-color="#F0A83D"/>
      <stop offset="1" stop-color="#D86F1E"/>
    </linearGradient>
    <linearGradient id="hair" x1="108" y1="82" x2="384" y2="342" gradientUnits="userSpaceOnUse">
      <stop stop-color="#182A73"/>
      <stop offset="0.48" stop-color="#22225F"/>
      <stop offset="1" stop-color="#11163F"/>
    </linearGradient>
    <linearGradient id="eye" x1="188" y1="258" x2="322" y2="302" gradientUnits="userSpaceOnUse">
      <stop stop-color="#75AFFF"/>
      <stop offset="1" stop-color="#294BAF"/>
    </linearGradient>
    <linearGradient id="skin" x1="157" y1="176" x2="343" y2="340" gradientUnits="userSpaceOnUse">
      <stop stop-color="#FFD8CF"/>
      <stop offset="1" stop-color="#F7B7AE"/>
    </linearGradient>
    <clipPath id="frame">
      <rect x="28" y="28" width="456" height="456" rx="92" fill="white"/>
    </clipPath>
  </defs>

  <rect width="512" height="512" rx="108" fill="#F2F5FB"/>
  <g clip-path="url(#frame)">
    <rect x="28" y="28" width="456" height="456" rx="92" fill="url(#bgMain)"/>
    <path d="M286 34H520V270L424 222L362 250L286 172V34Z" fill="#127E57" fill-opacity="0.8"/>
    <path d="M344 100L430 64L492 114L406 150L344 100Z" fill="#E8C94F"/>
    <path d="M344 100V178L406 228V150L344 100Z" fill="#DC8C26"/>
    <path d="M406 150L492 114V196L406 228V150Z" fill="url(#cube)"/>
    <path d="M300 198L374 166L426 208L352 240L300 198Z" fill="#F1CA45"/>
    <path d="M300 198V264L352 302V240L300 198Z" fill="#D87E25"/>
    <path d="M352 240L426 208V274L352 302V240Z" fill="#F3A938"/>
    <path d="M48 396C76 360 120 340 160 336C132 374 110 420 102 472H28V420C34 412 40 404 48 396Z" fill="#4F8CF7" fill-opacity="0.95"/>
    <path d="M78 438C94 418 112 402 132 392C114 420 106 446 106 484H52C56 466 64 450 78 438Z" fill="#B93554" fill-opacity="0.88"/>

    <path d="M170 156C182 138 200 124 220 118C200 116 172 118 144 132C146 114 154 96 168 82C136 90 102 116 88 150C72 138 58 132 42 130C54 154 74 170 92 178C70 188 54 206 44 228C66 220 82 214 98 214C88 230 82 246 82 268C104 258 118 246 128 232C130 256 140 278 154 292L358 288C370 274 378 258 382 238C394 250 410 258 430 260C426 244 418 230 406 216C424 214 444 208 466 194C444 186 428 180 404 180C416 164 422 148 424 130C408 138 390 150 376 166C368 132 346 102 314 86C320 106 320 124 314 140C286 122 252 118 222 122C238 134 246 146 250 158C218 148 192 148 170 156Z" fill="url(#hair)"/>

    <path d="M160 184C182 156 218 140 256 140C294 140 330 156 352 184C360 238 354 286 320 324C302 344 282 356 256 356C230 356 210 344 192 324C158 286 152 238 160 184Z" fill="url(#skin)"/>
    <path d="M224 254C232 248 244 246 256 246C268 246 280 248 288 254" stroke="#D68088" stroke-width="8" stroke-linecap="round"/>
    <ellipse cx="208" cy="250" rx="38" ry="20" fill="url(#eye)"/>
    <ellipse cx="304" cy="250" rx="38" ry="20" fill="url(#eye)"/>
    <ellipse cx="208" cy="248" rx="16" ry="8" fill="#182454"/>
    <ellipse cx="304" cy="248" rx="16" ry="8" fill="#182454"/>
    <ellipse cx="198" cy="242" rx="6" ry="3" fill="#EEF6FF"/>
    <ellipse cx="294" cy="242" rx="6" ry="3" fill="#EEF6FF"/>
    <path d="M170 216C190 202 212 194 234 194" stroke="#141832" stroke-width="10" stroke-linecap="round"/>
    <path d="M278 194C300 194 322 202 342 216" stroke="#141832" stroke-width="10" stroke-linecap="round"/>
    <path d="M248 278C248 286 246 292 242 298" stroke="#E99698" stroke-width="6" stroke-linecap="round"/>
    <ellipse cx="214" cy="292" rx="12" ry="8" fill="#F1A4A4" fill-opacity="0.45"/>
    <ellipse cx="298" cy="292" rx="12" ry="8" fill="#F1A4A4" fill-opacity="0.45"/>

    <path d="M150 354C180 336 220 326 256 326C292 326 332 336 362 354L376 484H136L150 354Z" fill="#171B37"/>
    <path d="M212 348H300L306 392H206L212 348Z" fill="#F8F8FF"/>
    <path d="M230 346H282L284 392H228L230 346Z" fill="#202543"/>
    <path d="M214 390H298L288 484H224L214 390Z" fill="#111426"/>
    <rect x="246" y="390" width="20" height="20" rx="10" fill="#D79B37"/>
    <path d="M198 362L214 344H230L224 390H206L198 362Z" fill="#EEF3FF"/>
    <path d="M314 362L298 344H282L288 390H306L314 362Z" fill="#EEF3FF"/>

    <path d="M104 192C128 184 148 174 160 156C164 188 152 212 126 228L104 192Z" fill="#25336D"/>
    <path d="M406 192C382 184 362 174 350 156C346 188 358 212 384 228L406 192Z" fill="#25336D"/>
    <path d="M130 120C154 110 176 106 202 110C180 126 164 144 154 168L130 120Z" fill="#1A2261"/>
    <path d="M382 120C358 110 336 106 310 110C332 126 348 144 358 168L382 120Z" fill="#1A2261"/>
  </g>
</svg>
